<?xml version="1.0" encoding="iso-8859-1"?>
<!-- Generator: Adobe Illustrator 16.0.0, SVG Export Plug-In . SVG Version: 6.00 Build 0)  -->
<!DOCTYPE svg PUBLIC "-//W3C//DTD SVG 1.1//EN" "http://www.w3.org/Graphics/SVG/1.1/DTD/svg11.dtd">
<svg version="1.1" id="Capa_1" xmlns="http://www.w3.org/2000/svg" xmlns:xlink="http://www.w3.org/1999/xlink" x="0px" y="0px"
	 width="530.402px" height="530.402px" viewBox="0 0 530.402 530.402" style="enable-background:new 0 0 530.402 530.402;"
	 xml:space="preserve">
<g>
	<g>
		<path d="M265.201,530.402c146.467,0,265.201-118.734,265.201-265.201S411.668,0,265.201,0S0,118.734,0,265.201
			S118.734,530.402,265.201,530.402z M104.361,447.678l-21.634-21.637l49.866-49.866l21.634,21.638L104.361,447.678z
			 M280.501,507.96h-30.6v-70.523h30.6V507.96z M507.96,249.901v30.6h-70.521v-30.6H507.96z M426.041,82.724l21.634,21.637
			l-49.865,49.866l-21.635-21.637L426.041,82.724z M397.81,376.172l49.865,49.866l-21.634,21.637l-49.866-49.865L397.81,376.172z
			 M249.901,22.442h30.6v70.523h-30.6V22.442z M222.658,203.215l45.523,44.076l83.122-81.656l21.444,21.83l-104.41,102.568
			l-66.962-64.835L222.658,203.215z M104.361,82.724l49.866,49.866l-21.634,21.637l-49.866-49.866L104.361,82.724z M92.963,249.901
			v30.6H22.442v-30.6H92.963z"/>
	</g>
</g>
<g>
</g>
<g>
</g>
<g>
</g>
<g>
</g>
<g>
</g>
<g>
</g>
<g>
</g>
<g>
</g>
<g>
</g>
<g>
</g>
<g>
</g>
<g>
</g>
<g>
</g>
<g>
</g>
<g>
</g>
</svg>
